ffmpeg started on 2016-12-09 at 22:54:38
Report written to "Output/x264/results/ffmpeg/sintelplacebo11000k.log"
Command line:
Tools/ffmpeg/ffmpeg -benchmark -y -i Input/y4m/sintel.y4m -c:v libx264 -preset placebo -b:v 11000k -an Output/x264/encoded/sintelplacebo11000k.mkv
ffmpeg version N-82227-gdb23fde Copyright (c) 2000-2016 the FFmpeg developers
  built with gcc 5.4.0 (Ubuntu 5.4.0-6ubuntu1~16.04.2) 20160609
  configuration: --prefix=/home/jaroslav/ffmpeg_build --pkg-config-flags=--static --extra-cflags=-I/home/jaroslav/ffmpeg_build/include --extra-ldflags=-L/home/jaroslav/ffmpeg_build/lib --bindir=/home/jaroslav/bin --enable-gpl --enable-libass --enable-libfdk-aac --enable-libfreetype --enable-libmp3lame --enable-libopus --enable-libtheora --enable-libvorbis --enable-libvpx --enable-libx264 --enable-libx265 --enable-nvenc --enable-libmfx --enable-libxvid --enable-libgsm --enable-libopencore-amrnb --enable-version3 --enable-nonfree
  libavutil      55. 35.100 / 55. 35.100
  libavcodec     57. 66.101 / 57. 66.101
  libavformat    57. 57.100 / 57. 57.100
  libavdevice    57.  2.100 / 57.  2.100
  libavfilter     6. 66.100 /  6. 66.100
  libswscale      4.  3.100 /  4.  3.100
  libswresample   2.  4.100 /  2.  4.100
  libpostproc    54.  2.100 / 54.  2.100
Input #0, yuv4mpegpipe, from 'Input/y4m/sintel.y4m':
  Duration: 00:00:20.83, start: 0.000000, bitrate: 2057307 kb/s
    Stream #0:0: Video: rawvideo (I420 / 0x30323449), yuv420p(progressive), 4096x1744, SAR 1:1 DAR 256:109, 24 fps, 24 tbr, 24 tbn, 24 tbc
[libx264 @ 0x37a91c0] using SAR=1/1
[libx264 @ 0x37a91c0] DPB size (16 frames, 446464 mbs) > level limit (6 frames, 184320 mbs)
[libx264 @ 0x37a91c0] using cpu capabilities: MMX2 SSE2Fast SSSE3 SSE4.2 AVX FMA3 AVX2 LZCNT BMI2
[libx264 @ 0x37a91c0] profile High, level 5.2
[libx264 @ 0x37a91c0] 264 - core 148 - H.264/MPEG-4 AVC codec - Copyleft 2003-2016 - http://www.videolan.org/x264.html - options: cabac=1 ref=16 deblock=1:0:0 analyse=0x3:0x133 me=tesa subme=11 psy=1 psy_rd=1.00:0.00 mixed_ref=1 me_range=24 chroma_me=1 trellis=2 8x8dct=1 cqm=0 deadzone=21,11 fast_pskip=0 chroma_qp_offset=-2 threads=6 lookahead_threads=1 sliced_threads=0 nr=0 decimate=1 interlaced=0 bluray_compat=0 constrained_intra=0 bframes=16 b_pyramid=2 b_adapt=2 b_bias=0 direct=3 weightb=1 open_gop=0 weightp=2 keyint=250 keyint_min=24 scenecut=40 intra_refresh=0 rc_lookahead=60 rc=abr mbtree=1 bitrate=11000 ratetol=1.0 qcomp=0.60 qpmin=0 qpmax=69 qpstep=4 ip_ratio=1.40 aq=1:1.00
Output #0, matroska, to 'Output/x264/encoded/sintelplacebo11000k.mkv':
  Metadata:
    encoder         : Lavf57.57.100
    Stream #0:0: Video: h264 (libx264) (H264 / 0x34363248), yuv420p, 4096x1744 [SAR 1:1 DAR 256:109], q=-1--1, 11000 kb/s, 24 fps, 1k tbn, 24 tbc
    Metadata:
      encoder         : Lavc57.66.101 libx264
    Side data:
      cpb: bitrate max/min/avg: 0/0/11000000 buffer size: 0 vbv_delay: -1
Stream mapping:
  Stream #0:0 -> #0:0 (rawvideo (native) -> h264 (libx264))
Press [q] to stop, [?] for help
frame=   11 fps=0.0 q=0.0 size=       0kB time=00:00:00.00 bitrate=N/A speed=   0x    frame=   19 fps= 17 q=0.0 size=       0kB time=00:00:00.00 bitrate=N/A speed=   0x    frame=   27 fps= 17 q=0.0 size=       0kB time=00:00:00.00 bitrate=N/A speed=   0x    frame=   35 fps=6.6 q=0.0 size=       0kB time=00:00:00.00 bitrate=N/A speed=   0x    frame=   36 fps=4.3 q=0.0 size=       0kB time=00:00:00.00 bitrate=N/A speed=   0x    frame=   37 fps=3.4 q=0.0 size=       0kB time=00:00:00.00 bitrate=N/A speed=   0x    frame=   45 fps=3.9 q=0.0 size=       0kB time=00:00:00.00 bitrate=N/A speed=   0x    frame=   53 fps=4.4 q=0.0 size=       0kB time=00:00:00.00 bitrate=N/A speed=   0x    frame=   61 fps=4.9 q=0.0 size=       0kB time=00:00:00.00 bitrate=N/A speed=   0x    frame=   69 fps=5.3 q=0.0 size=       0kB time=00:00:00.00 bitrate=N/A speed=   0x    frame=   77 fps=5.7 q=0.0 size=       0kB time=00:00:00.00 bitrate=N/A speed=   0x    frame=   84 fps=1.3 q=0.0 size=       0kB time=00:00:00.00 bitrate=N/A speed=   0x    frame=   86 fps=1.3 q=0.0 size=       0kB time=00:00:00.00 bitrate=N/A speed=   0x    frame=   88 fps=1.2 q=24.0 size=       1kB time=-00:00:00.08 bitrate=N/A speed=N/A    frame=   90 fps=1.2 q=29.0 size=       1kB time=00:00:00.00 bitrate=5888.0kbits/s speed=1.33e-05x    frame=   92 fps=1.2 q=36.0 size=       1kB time=00:00:00.08 bitrate=  70.1kbits/s speed=0.00107x    frame=   93 fps=1.1 q=40.0 size=       1kB time=00:00:00.12 bitrate=  46.7kbits/s speed=0.00147x    frame=   94 fps=1.1 q=40.0 size=       1kB time=00:00:00.16 bitrate=  35.0kbits/s speed=0.00192x    frame=   96 fps=1.1 q=41.0 size=       1kB time=00:00:00.25 bitrate=  23.5kbits/s speed=0.00281x    frame=   99 fps=1.0 q=41.0 size=       1kB time=00:00:00.37 bitrate=  15.7kbits/s speed=0.00381x    frame=  100 fps=1.0 q=40.0 size=       1kB time=00:00:00.41 bitrate=  14.1kbits/s speed=0.0042x    frame=  101 fps=1.0 q=41.0 size=       1kB time=00:00:00.45 bitrate=  12.8kbits/s speed=0.00452x    frame=  102 fps=1.0 q=40.0 size=       1kB time=00:00:00.50 bitrate=  11.8kbits/s speed=0.0049x    frame=  103 fps=1.0 q=40.0 size=       1kB time=00:00:00.54 bitrate=  10.8kbits/s speed=0.0052x    frame=  104 fps=1.0 q=40.0 size=       1kB time=00:00:00.58 bitrate=  10.1kbits/s speed=0.00544x    frame=  105 fps=0.9 q=40.0 size=       1kB time=00:00:00.62 bitrate=   9.4kbits/s speed=0.00536x    frame=  106 fps=0.9 q=41.0 size=       1kB time=00:00:00.66 bitrate=   8.8kbits/s speed=0.0056x    frame=  107 fps=0.9 q=40.0 size=       1kB time=00:00:00.70 bitrate=   8.3kbits/s speed=0.00587x    frame=  108 fps=0.9 q=40.0 size=       1kB time=00:00:00.75 bitrate=   7.8kbits/s speed=0.00617x    frame=  109 fps=0.9 q=40.0 size=       1kB time=00:00:00.79 bitrate=   7.4kbits/s speed=0.0063x    frame=  110 fps=0.9 q=40.0 size=       1kB time=00:00:00.83 bitrate=   7.1kbits/s speed=0.00649x    frame=  111 fps=0.8 q=40.0 size=       1kB time=00:00:00.87 bitrate=   6.7kbits/s speed=0.00639x    frame=  112 fps=0.8 q=40.0 size=       1kB time=00:00:00.91 bitrate=   6.4kbits/s speed=0.00648x    frame=  113 fps=0.8 q=40.0 size=       1kB time=00:00:00.95 bitrate=   6.1kbits/s speed=0.0066x    frame=  114 fps=0.8 q=40.0 size=       1kB time=00:00:01.00 bitrate=   5.9kbits/s speed=0.0068x    frame=  116 fps=0.8 q=40.0 size=       1kB time=00:00:01.08 bitrate=   5.4kbits/s speed=0.00724x    frame=  117 fps=0.7 q=40.0 size=       1kB time=00:00:01.12 bitrate=   5.2kbits/s speed=0.00719x    frame=  118 fps=0.7 q=39.0 size=       1kB time=00:00:01.16 bitrate=   5.0kbits/s speed=0.00724x    frame=  119 fps=0.7 q=39.0 size=       1kB time=00:00:01.20 bitrate=   4.9kbits/s speed=0.00729x    frame=  120 fps=0.7 q=39.0 size=       1kB time=00:00:01.25 bitrate=   4.7kbits/s speed=0.00739x    frame=  121 fps=0.7 q=39.0 size=       1kB time=00:00:01.29 bitrate=   4.6kbits/s speed=0.00754x    frame=  122 fps=0.7 q=39.0 size=       1kB time=00:00:01.33 bitrate=   4.4kbits/s speed=0.00766x    frame=  123 fps=0.7 q=39.0 size=       1kB time=00:00:01.37 bitrate=   4.3kbits/s speed=0.00774x    frame=  124 fps=0.7 q=39.0 size=       1kB time=00:00:01.41 bitrate=   4.2kbits/s speed=0.00778x    frame=  125 fps=0.7 q=39.0 size=       1kB time=00:00:01.45 bitrate=   4.0kbits/s speed=0.00774x    frame=  126 fps=0.7 q=39.0 size=       1kB time=00:00:01.50 bitrate=   3.9kbits/s speed=0.00784x    frame=  127 fps=0.7 q=39.0 size=       1kB time=00:00:01.54 bitrate=   3.8kbits/s speed=0.00796x    frame=  128 fps=0.7 q=39.0 size=       1kB time=00:00:01.58 bitrate=   3.7kbits/s speed=0.00807x    frame=  129 fps=0.6 q=39.0 size=       1kB time=00:00:01.62 bitrate=   3.6kbits/s speed=0.00816x    frame=  130 fps=0.6 q=38.0 size=       1kB time=00:00:01.66 bitrate=   3.5kbits/s speed=0.00819x    frame=  131 fps=0.6 q=38.0 size=       1kB time=00:00:01.70 bitrate=   3.4kbits/s speed=0.00815x    frame=  132 fps=0.6 q=38.0 size=       1kB time=00:00:01.75 bitrate=   3.4kbits/s speed=0.00823x    frame=  133 fps=0.6 q=38.0 size=       1kB time=00:00:01.79 bitrate=   3.3kbits/s speed=0.0083x    frame=  134 fps=0.6 q=38.0 size=       1kB time=00:00:01.83 bitrate=   3.2kbits/s speed=0.0084x    frame=  135 fps=0.6 q=38.0 size=       1kB time=00:00:01.87 bitrate=   3.1kbits/s speed=0.00849x    frame=  136 fps=0.6 q=38.0 size=       1kB time=00:00:01.91 bitrate=   3.1kbits/s speed=0.00858x    frame=  137 fps=0.6 q=38.0 size=       1kB time=00:00:01.95 bitrate=   3.0kbits/s speed=0.00846x    frame=  138 fps=0.6 q=38.0 size=       1kB time=00:00:02.00 bitrate=   2.9kbits/s speed=0.00854x    frame=  139 fps=0.6 q=38.0 size=       1kB time=00:00:02.04 bitrate=   2.9kbits/s speed=0.00853x    frame=  140 fps=0.6 q=38.0 size=       1kB time=00:00:02.08 bitrate=   2.8kbits/s speed=0.00858x    frame=  141 fps=0.6 q=38.0 size=       1kB time=00:00:02.12 bitrate=   2.8kbits/s speed=0.00857x    frame=  142 fps=0.6 q=38.0 size=       1kB time=00:00:02.16 bitrate=   2.7kbits/s speed=0.00863x    frame=  143 fps=0.6 q=38.0 size=       1kB time=00:00:02.20 bitrate=   2.7kbits/s speed=0.00858x    frame=  144 fps=0.6 q=38.0 size=       1kB time=00:00:02.25 bitrate=   2.6kbits/s speed=0.00863x    frame=  145 fps=0.5 q=38.0 size=       1kB time=00:00:02.29 bitrate=   2.6kbits/s speed=0.00864x    frame=  146 fps=0.5 q=38.0 size=       1kB time=00:00:02.33 bitrate=   2.5kbits/s speed=0.00867x    frame=  147 fps=0.5 q=38.0 size=       1kB time=00:00:02.37 bitrate=   2.5kbits/s speed=0.00869x    frame=  148 fps=0.5 q=38.0 size=       1kB time=00:00:02.41 bitrate=   2.4kbits/s speed=0.00871x    frame=  149 fps=0.5 q=37.0 size=       1kB time=00:00:02.45 bitrate=   2.4kbits/s speed=0.00868x    frame=  150 fps=0.5 q=37.0 size=       1kB time=00:00:02.50 bitrate=   2.4kbits/s speed=0.00875x    frame=  151 fps=0.5 q=37.0 size=       1kB time=00:00:02.54 bitrate=   2.3kbits/s speed=0.00878x    frame=  152 fps=0.5 q=37.0 size=       1kB time=00:00:02.58 bitrate=   2.3kbits/s speed=0.00882x    frame=  153 fps=0.5 q=37.0 size=       1kB time=00:00:02.62 bitrate=   2.2kbits/s speed=0.00883x    frame=  154 fps=0.5 q=37.0 size=       1kB time=00:00:02.66 bitrate=   2.2kbits/s speed=0.00877x    frame=  155 fps=0.5 q=37.0 size=       1kB time=00:00:02.70 bitrate=   2.2kbits/s speed=0.00884x    frame=  156 fps=0.5 q=37.0 size=       1kB time=00:00:02.75 bitrate=   2.1kbits/s speed=0.00891x    frame=  157 fps=0.5 q=37.0 size=       1kB time=00:00:02.79 bitrate=   2.1kbits/s speed=0.00898x    frame=  158 fps=0.5 q=37.0 size=       1kB time=00:00:02.83 bitrate=   2.1kbits/s speed=0.00905x    frame=  159 fps=0.5 q=37.0 size=       1kB time=00:00:02.87 bitrate=   2.0kbits/s speed=0.00903x    frame=  160 fps=0.5 q=37.0 size=       1kB time=00:00:02.91 bitrate=   2.0kbits/s speed=0.00896x    frame=  161 fps=0.5 q=37.0 size=       1kB time=00:00:02.95 bitrate=   2.0kbits/s speed=0.00903x    frame=  162 fps=0.5 q=37.0 size=       1kB time=00:00:03.00 bitrate=   2.0kbits/s speed=0.0091x    frame=  163 fps=0.5 q=37.0 size=       1kB time=00:00:03.04 bitrate=   1.9kbits/s speed=0.00916x    frame=  164 fps=0.5 q=37.0 size=       1kB time=00:00:03.08 bitrate=   1.9kbits/s speed=0.00923x    frame=  165 fps=0.5 q=36.0 size=       1kB time=00:00:03.12 bitrate=   1.9kbits/s speed=0.00927x    frame=  166 fps=0.5 q=36.0 size=       1kB time=00:00:03.16 bitrate=   1.9kbits/s speed=0.00917x    frame=  167 fps=0.5 q=36.0 size=       1kB time=00:00:03.20 bitrate=   1.8kbits/s speed=0.00922x    frame=  168 fps=0.5 q=36.0 size=       1kB time=00:00:03.25 bitrate=   1.8kbits/s speed=0.00926x    frame=  169 fps=0.5 q=36.0 size=       1kB time=00:00:03.29 bitrate=   1.8kbits/s speed=0.00931x    frame=  170 fps=0.5 q=36.0 size=       1kB time=00:00:03.33 bitrate=   1.8kbits/s speed=0.00937x    frame=  171 fps=0.5 q=36.0 size=       1kB time=00:00:03.37 bitrate=   1.7kbits/s speed=0.00941x    frame=  172 fps=0.5 q=36.0 size=       1kB time=00:00:03.41 bitrate=   1.7kbits/s speed=0.00934x    frame=  173 fps=0.5 q=36.0 size=       1kB time=00:00:03.45 bitrate=   1.7kbits/s speed=0.00936x    frame=  174 fps=0.5 q=36.0 size=       1kB time=00:00:03.50 bitrate=   1.7kbits/s speed=0.0094x    frame=  175 fps=0.5 q=36.0 size=    5148kB time=00:00:03.54 bitrate=11903.7kbits/s speed=0.00944x    frame=  176 fps=0.5 q=36.0 size=    5148kB time=00:00:03.58 bitrate=11767.5kbits/s speed=0.00944x    frame=  177 fps=0.5 q=36.0 size=    5148kB time=00:00:03.62 bitrate=11631.2kbits/s speed=0.00949x    frame=  178 fps=0.5 q=36.0 size=    5148kB time=00:00:03.66 bitrate=11498.1kbits/s speed=0.00942x    frame=  179 fps=0.5 q=36.0 size=    5148kB time=00:00:03.70 bitrate=11370.9kbits/s speed=0.00946x    frame=  180 fps=0.5 q=36.0 size=    5148kB time=00:00:03.75 bitrate=11243.6kbits/s speed=0.00948x    frame=  181 fps=0.5 q=36.0 size=    5148kB time=00:00:03.79 bitrate=11119.1kbits/s speed=0.00953x    frame=  182 fps=0.5 q=36.0 size=    5148kB time=00:00:03.83 bitrate=11000.2kbits/s speed=0.00953x    frame=  183 fps=0.5 q=36.0 size=    5148kB time=00:00:03.87 bitrate=10881.0kbits/s speed=0.00955x    frame=  184 fps=0.4 q=36.0 size=    5148kB time=00:00:03.91 bitrate=10764.4kbits/s speed=0.00952x    frame=  185 fps=0.4 q=36.0 size=    5148kB time=00:00:03.95 bitrate=10652.9kbits/s speed=0.00953x    frame=  186 fps=0.4 q=36.0 size=    5148kB time=00:00:04.00 bitrate=10541.1kbits/s speed=0.00955x    frame=  187 fps=0.4 q=35.0 size=    5148kB time=00:00:04.04 bitrate=10431.6kbits/s speed=0.00959x    frame=  188 fps=0.4 q=35.0 size=    5148kB time=00:00:04.08 bitrate=10326.8kbits/s speed=0.00962x    frame=  189 fps=0.4 q=35.0 size=    5148kB time=00:00:04.12 bitrate=10221.7kbits/s speed=0.00962x    frame=  190 fps=0.4 q=35.0 size=    5148kB time=00:00:04.16 bitrate=10118.7kbits/s speed=0.00969x    frame=  191 fps=0.4 q=35.0 size=    5148kB time=00:00:04.20 bitrate=10020.2kbits/s speed=0.00964x    frame=  192 fps=0.4 q=35.0 size=    5148kB time=00:00:04.25 bitrate=9921.2kbits/s speed=0.00971x    frame=  193 fps=0.4 q=35.0 size=    5148kB time=00:00:04.29 bitrate=9824.1kbits/s speed=0.00973x    frame=  194 fps=0.4 q=35.0 size=    5148kB time=00:00:04.33 bitrate=9731.2kbits/s speed=0.0098x    frame=  195 fps=0.4 q=35.0 size=    5148kB time=00:00:04.37 bitrate=9637.8kbits/s speed=0.00971x    frame=  196 fps=0.4 q=35.0 size=    5148kB time=00:00:04.41 bitrate=9546.1kbits/s speed=0.00977x    frame=  197 fps=0.4 q=35.0 size=    5148kB time=00:00:04.45 bitrate=9458.4kbits/s speed=0.00978x    frame=  198 fps=0.4 q=35.0 size=    5148kB time=00:00:04.50 bitrate=9370.1kbits/s speed=0.00982x    frame=  199 fps=0.4 q=35.0 size=    5148kB time=00:00:04.54 bitrate=9283.5kbits/s speed=0.00985x    frame=  200 fps=0.4 q=35.0 size=    5148kB time=00:00:04.58 bitrate=9200.4kbits/s speed=0.00987x    frame=  201 fps=0.4 q=35.0 size=    5148kB time=00:00:04.62 bitrate=9116.9kbits/s speed=0.00981x    frame=  202 fps=0.4 q=35.0 size=    5148kB time=00:00:04.66 bitrate=9034.9kbits/s speed=0.00986x    frame=  203 fps=0.4 q=35.0 size=    5148kB time=00:00:04.70 bitrate=8956.2kbits/s speed=0.00989x    frame=  204 fps=0.4 q=35.0 size=    5148kB time=00:00:04.75 bitrate=8877.0kbits/s speed=0.00975x    frame=  205 fps=0.4 q=35.0 size=    5148kB time=00:00:04.79 bitrate=8799.3kbits/s speed=0.00979x    frame=  206 fps=0.4 q=35.0 size=    5148kB time=00:00:04.83 bitrate=8724.6kbits/s speed=0.00979x    frame=  207 fps=0.4 q=35.0 size=    5148kB time=00:00:04.87 bitrate=8649.5kbits/s speed=0.00984x    frame=  208 fps=0.4 q=35.0 size=    5148kB time=00:00:04.91 bitrate=8575.6kbits/s speed=0.00988x    frame=  209 fps=0.4 q=35.0 size=    5148kB time=00:00:04.95 bitrate=8504.7kbits/s speed=0.00989x    frame=  210 fps=0.4 q=35.0 size=    5148kB time=00:00:05.00 bitrate=8433.3kbits/s speed=0.00994x    frame=  211 fps=0.4 q=35.0 size=    5148kB time=00:00:05.04 bitrate=8363.0kbits/s speed=0.00983x    frame=  212 fps=0.4 q=35.0 size=    5148kB time=00:00:05.08 bitrate=8295.6kbits/s speed=0.00982x    frame=  213 fps=0.4 q=35.0 size=    5148kB time=00:00:05.12 bitrate=8227.6kbits/s speed=0.00985x    frame=  214 fps=0.4 q=35.0 size=    5148kB time=00:00:05.16 bitrate=8160.8kbits/s speed=0.00988x    frame=  215 fps=0.4 q=35.0 size=    5148kB time=00:00:05.20 bitrate=8096.5kbits/s speed=0.00991x    frame=  216 fps=0.4 q=35.0 size=    5148kB time=00:00:05.25 bitrate=8031.8kbits/s speed=0.00994x    frame=  217 fps=0.4 q=35.0 size=    5148kB time=00:00:05.29 bitrate=7968.0kbits/s speed=0.00984x    frame=  218 fps=0.4 q=35.0 size=    5148kB time=00:00:05.33 bitrate=7906.8kbits/s speed=0.00987x    frame=  219 fps=0.4 q=35.0 size=    5148kB time=00:00:05.37 bitrate=7845.0kbits/s speed=0.00988x    frame=  220 fps=0.4 q=35.0 size=    5148kB time=00:00:05.41 bitrate=7784.2kbits/s speed=0.00991x    frame=  221 fps=0.4 q=35.0 size=    5148kB time=00:00:05.45 bitrate=7725.7kbits/s speed=0.00994x    frame=  222 fps=0.4 q=35.0 size=    5148kB time=00:00:05.50 bitrate=7666.8kbits/s speed=0.00997x    frame=  223 fps=0.4 q=35.0 size=    5148kB time=00:00:05.54 bitrate=7608.7kbits/s speed=0.0099x    frame=  224 fps=0.4 q=35.0 size=    5148kB time=00:00:05.58 bitrate=7552.8kbits/s speed=0.00993x    frame=  225 fps=0.4 q=35.0 size=    5148kB time=00:00:05.62 bitrate=7496.4kbits/s speed=0.00991x    frame=  226 fps=0.4 q=35.0 size=    5148kB time=00:00:05.66 bitrate=7440.9kbits/s speed=0.00993x    frame=  227 fps=0.4 q=35.0 size=    5148kB time=00:00:05.70 bitrate=7387.4kbits/s speed=0.00996x    frame=  228 fps=0.4 q=35.0 size=    5148kB time=00:00:05.75 bitrate=7333.5kbits/s speed=0.00998x    frame=  229 fps=0.4 q=35.0 size=    5148kB time=00:00:05.79 bitrate=7280.3kbits/s speed=0.00997x    frame=  230 fps=0.4 q=34.0 size=    5148kB time=00:00:05.83 bitrate=7229.1kbits/s speed=0.00997x    frame=  231 fps=0.4 q=34.0 size=    5148kB time=00:00:05.87 bitrate=7177.5kbits/s speed=0.00996x    frame=  232 fps=0.4 q=34.0 size=    5148kB time=00:00:05.91 bitrate=7126.5kbits/s speed=0.00998x    frame=  233 fps=0.4 q=34.0 size=    5148kB time=00:00:05.95 bitrate=7077.5kbits/s speed=0.00999x    frame=  234 fps=0.4 q=34.0 size=    5148kB time=00:00:06.00 bitrate=7028.0kbits/s speed=0.01x    frame=  235 fps=0.4 q=34.0 size=    5148kB time=00:00:06.04 bitrate=6979.1kbits/s speed=0.01x    frame=  236 fps=0.4 q=34.0 size=    5148kB time=00:00:06.08 bitrate=6932.1kbits/s speed=0.01x    frame=  237 fps=0.4 q=34.0 size=    5148kB time=00:00:06.12 bitrate=6884.6kbits/s speed=0.01x    frame=  238 fps=0.4 q=34.0 size=    5148kB time=00:00:06.16 bitrate=6837.7kbits/s speed=0.0101x    frame=  239 fps=0.4 q=34.0 size=    5148kB time=00:00:06.20 bitrate=6792.5kbits/s speed=0.0101x    frame=  240 fps=0.4 q=34.0 size=    5148kB time=00:00:06.25 bitrate=6746.9kbits/s speed=0.0101x    frame=  241 fps=0.4 q=34.0 size=    5148kB time=00:00:06.29 bitrate=6701.9kbits/s speed=0.0101x    frame=  242 fps=0.4 q=34.0 size=    5148kB time=00:00:06.33 bitrate=6658.5kbits/s speed=0.0102x    frame=  243 fps=0.4 q=34.0 size=    5148kB time=00:00:06.37 bitrate=6614.6kbits/s speed=0.0102x    frame=  245 fps=0.4 q=34.0 size=    5148kB time=00:00:06.45 bitrate=6529.6kbits/s speed=0.0101x    frame=  246 fps=0.4 q=34.0 size=    5148kB time=00:00:06.50 bitrate=6487.4kbits/s speed=0.0101x    frame=  247 fps=0.4 q=34.0 size=    5148kB time=00:00:06.54 bitrate=6445.8kbits/s speed=0.0102x    frame=  248 fps=0.4 q=34.0 size=    5148kB time=00:00:06.58 bitrate=6405.7kbits/s speed=0.0102x    frame=  249 fps=0.4 q=34.0 size=    5148kB time=00:00:06.62 bitrate=6365.1kbits/s speed=0.0102x    frame=  250 fps=0.4 q=34.0 size=    5148kB time=00:00:06.66 bitrate=6325.0kbits/s speed=0.0102x    frame=  251 fps=0.4 q=34.0 size=    5148kB time=00:00:06.70 bitrate=6286.3kbits/s speed=0.0101x    frame=  252 fps=0.4 q=34.0 size=    5148kB time=00:00:06.75 bitrate=6247.2kbits/s speed=0.0102x    frame=  253 fps=0.4 q=34.0 size=    5148kB time=00:00:06.79 bitrate=6208.6kbits/s speed=0.0102x    frame=  254 fps=0.4 q=34.0 size=    5148kB time=00:00:06.83 bitrate=6171.3kbits/s speed=0.0102x    frame=  255 fps=0.4 q=34.0 size=    5148kB time=00:00:06.87 bitrate=6133.6kbits/s speed=0.0102x    frame=  256 fps=0.4 q=34.0 size=    5148kB time=00:00:06.91 bitrate=6096.4kbits/s speed=0.0102x    frame=  257 fps=0.4 q=34.0 size=    5148kB time=00:00:06.95 bitrate=6060.5kbits/s speed=0.0102x    frame=  258 fps=0.4 q=34.0 size=    5148kB time=00:00:07.00 bitrate=6024.1kbits/s speed=0.0102x    frame=  259 fps=0.4 q=34.0 size=    5148kB time=00:00:07.04 bitrate=5988.2kbits/s speed=0.0102x    frame=  260 fps=0.4 q=34.0 size=    5148kB time=00:00:07.08 bitrate=5953.5kbits/s speed=0.0102x    frame=  261 fps=0.4 q=34.0 size=    5148kB time=00:00:07.12 bitrate=5918.4kbits/s speed=0.0102x    frame=  262 fps=0.4 q=34.0 size=    5148kB time=00:00:07.16 bitrate=5883.8kbits/s speed=0.0102x    frame=  263 fps=0.4 q=34.0 size=    5148kB time=00:00:07.20 bitrate=5850.3kbits/s speed=0.0102x    frame=  264 fps=0.4 q=34.0 size=    5148kB time=00:00:07.25 bitrate=5816.4kbits/s speed=0.0102x    frame=  265 fps=0.4 q=34.0 size=    5148kB time=00:00:07.29 bitrate=5782.9kbits/s speed=0.0102x    frame=  266 fps=0.4 q=34.0 size=    5148kB time=00:00:07.33 bitrate=5750.6kbits/s speed=0.0102x    frame=  267 fps=0.4 q=34.0 size=    5148kB time=00:00:07.37 bitrate=5717.8kbits/s speed=0.0102x    frame=  268 fps=0.4 q=34.0 size=    5148kB time=00:00:07.41 bitrate=5685.5kbits/s speed=0.0102x    frame=  269 fps=0.4 q=34.0 size=    5148kB time=00:00:07.45 bitrate=5654.2kbits/s speed=0.0102x    frame=  270 fps=0.4 q=34.0 size=    5148kB time=00:00:07.50 bitrate=5622.6kbits/s speed=0.0102x    frame=  271 fps=0.4 q=34.0 size=    5148kB time=00:00:07.54 bitrate=5591.3kbits/s speed=0.0102x    frame=  272 fps=0.4 q=34.0 size=    5148kB time=00:00:07.58 bitrate=5561.0kbits/s speed=0.0102x    frame=  273 fps=0.4 q=34.0 size=    5148kB time=00:00:07.62 bitrate=5530.4kbits/s speed=0.0102x    frame=  274 fps=0.4 q=34.0 size=    5148kB time=00:00:07.66 bitrate=5500.1kbits/s speed=0.0102x    frame=  276 fps=0.4 q=33.0 size=    5148kB time=00:00:07.75 bitrate=5441.2kbits/s speed=0.0103x    frame=  277 fps=0.4 q=33.0 size=    5148kB time=00:00:07.79 bitrate=5411.9kbits/s speed=0.0103x    frame=  278 fps=0.4 q=33.0 size=    5148kB time=00:00:07.83 bitrate=5383.6kbits/s speed=0.0103x    frame=  279 fps=0.4 q=33.0 size=    5148kB time=00:00:07.87 bitrate=5354.9kbits/s speed=0.0102x    frame=  280 fps=0.4 q=33.0 size=    5148kB time=00:00:07.91 bitrate=5326.5kbits/s speed=0.0103x    frame=  281 fps=0.4 q=33.0 size=    5148kB time=00:00:07.95 bitrate=5299.0kbits/s speed=0.0103x    frame=  282 fps=0.4 q=33.0 size=    5148kB time=00:00:08.00 bitrate=5271.2kbits/s speed=0.0103x    frame=  283 fps=0.4 q=33.0 size=    5148kB time=00:00:08.04 bitrate=5243.7kbits/s speed=0.0103x    frame=  284 fps=0.4 q=33.0 size=    5148kB time=00:00:08.08 bitrate=5217.1kbits/s speed=0.0104x    frame=  285 fps=0.4 q=33.0 size=    5148kB time=00:00:08.12 bitrate=5190.1kbits/s speed=0.0103x    frame=  286 fps=0.4 q=33.0 size=    5148kB time=00:00:08.16 bitrate=5163.4kbits/s speed=0.0103x    frame=  287 fps=0.4 q=33.0 size=   10278kB time=00:00:08.20 bitrate=10256.5kbits/s speed=0.0103x    frame=  288 fps=0.4 q=33.0 size=   10278kB time=00:00:08.25 bitrate=10204.3kbits/s speed=0.0103x    frame=  289 fps=0.4 q=33.0 size=   10278kB time=00:00:08.29 bitrate=10152.6kbits/s speed=0.0103x    frame=  290 fps=0.4 q=33.0 size=   10278kB time=00:00:08.33 bitrate=10102.7kbits/s speed=0.0103x    frame=  291 fps=0.4 q=33.0 size=   10278kB time=00:00:08.37 bitrate=10052.0kbits/s speed=0.0103x    frame=  292 fps=0.4 q=33.0 size=   10278kB time=00:00:08.41 bitrate=10001.8kbits/s speed=0.0103x    frame=  293 fps=0.4 q=33.0 size=   10278kB time=00:00:08.45 bitrate=9953.4kbits/s speed=0.0103x    frame=  294 fps=0.4 q=33.0 size=   10278kB time=00:00:08.50 bitrate=9904.2kbits/s speed=0.0103x    frame=  295 fps=0.4 q=33.0 size=   10278kB time=00:00:08.54 bitrate=9855.5kbits/s speed=0.0103x    frame=  296 fps=0.4 q=33.0 size=   10278kB time=00:00:08.58 bitrate=9808.4kbits/s speed=0.0103x    frame=  297 fps=0.4 q=33.0 size=   10278kB time=00:00:08.62 bitrate=9760.7kbits/s speed=0.0102x    frame=  298 fps=0.4 q=33.0 size=   10278kB time=00:00:08.66 bitrate=9713.4kbits/s speed=0.0103x    frame=  299 fps=0.4 q=33.0 size=   10278kB time=00:00:08.70 bitrate=9667.7kbits/s speed=0.0103x    frame=  300 fps=0.4 q=33.0 size=   10278kB time=00:00:08.75 bitrate=9621.3kbits/s speed=0.0103x    frame=  301 fps=0.4 q=33.0 size=   10278kB time=00:00:08.79 bitrate=9575.3kbits/s speed=0.0103x    frame=  302 fps=0.4 q=33.0 size=   10278kB time=00:00:08.83 bitrate=9530.9kbits/s speed=0.0103x    frame=  303 fps=0.4 q=33.0 size=   10278kB time=00:00:08.87 bitrate=9485.8kbits/s speed=0.0104x    frame=  304 fps=0.4 q=33.0 size=   10278kB time=00:00:08.91 bitrate=9441.1kbits/s speed=0.0103x    frame=  305 fps=0.4 q=33.0 size=   10278kB time=00:00:08.95 bitrate=9397.9kbits/s speed=0.0103x    frame=  306 fps=0.4 q=33.0 size=   10278kB time=00:00:09.00 bitrate=9354.0kbits/s speed=0.0103x    frame=  307 fps=0.4 q=33.0 size=   10278kB time=00:00:09.04 bitrate=9310.6kbits/s speed=0.0103x    frame=  308 fps=0.4 q=33.0 size=   10278kB time=00:00:09.08 bitrate=9268.6kbits/s speed=0.0103x    frame=  309 fps=0.4 q=33.0 size=   10278kB time=00:00:09.12 bitrate=9225.9kbits/s speed=0.0104x    frame=  310 fps=0.3 q=33.0 size=   10278kB time=00:00:09.16 bitrate=9183.6kbits/s speed=0.0103x    frame=  311 fps=0.4 q=33.0 size=   10278kB time=00:00:09.20 bitrate=9142.7kbits/s speed=0.0104x    frame=  312 fps=0.4 q=33.0 size=   10278kB time=00:00:09.25 bitrate=9101.2kbits/s speed=0.0104x    frame=  314 fps=0.3 q=33.0 size=   10278kB time=00:00:09.33 bitrate=9020.3kbits/s speed=0.0104x    frame=  315 fps=0.3 q=33.0 size=   10278kB time=00:00:09.37 bitrate=8979.9kbits/s speed=0.0104x    frame=  316 fps=0.3 q=33.0 size=   10278kB time=00:00:09.41 bitrate=8939.9kbits/s speed=0.0104x    frame=  319 fps=0.4 q=33.0 size=   10278kB time=00:00:09.54 bitrate=8822.8kbits/s speed=0.0105x    frame=  320 fps=0.4 q=33.0 size=   10278kB time=00:00:09.58 bitrate=8785.0kbits/s speed=0.0105x    frame=  321 fps=0.3 q=33.0 size=   10278kB time=00:00:09.62 bitrate=8746.7kbits/s speed=0.0104x    frame=  322 fps=0.3 q=33.0 size=   10278kB time=00:00:09.66 bitrate=8708.7kbits/s speed=0.0104x    frame=  323 fps=0.3 q=33.0 size=   10278kB time=00:00:09.70 bitrate=8671.9kbits/s speed=0.0105x    frame=  324 fps=0.3 q=33.0 size=   10278kB time=00:00:09.75 bitrate=8634.6kbits/s speed=0.0105x    frame=  325 fps=0.3 q=33.0 size=   10278kB time=00:00:09.79 bitrate=8597.5kbits/s speed=0.0105x    frame=  326 fps=0.3 q=33.0 size=   10278kB time=00:00:09.83 bitrate=8561.7kbits/s speed=0.0106x    frame=  327 fps=0.3 q=32.0 size=   10278kB time=00:00:09.87 bitrate=8525.3kbits/s speed=0.0106x    frame=  328 fps=0.3 q=32.0 size=   10278kB time=00:00:09.91 bitrate=8489.2kbits/s speed=0.0105x    frame=  329 fps=0.3 q=32.0 size=   10278kB time=00:00:09.95 bitrate=8454.2kbits/s speed=0.0105x    frame=  330 fps=0.3 q=32.0 size=   10278kB time=00:00:10.00 bitrate=8418.7kbits/s speed=0.0105x    frame=  331 fps=0.3 q=32.0 size=   10278kB time=00:00:10.04 bitrate=8383.5kbits/s speed=0.0106x    frame=  332 fps=0.3 q=32.0 size=   10278kB time=00:00:10.08 bitrate=8349.4kbits/s speed=0.0106x    frame=  333 fps=0.3 q=30.0 size=   10278kB time=00:00:10.12 bitrate=8314.8kbits/s speed=0.0106x    frame=  334 fps=0.3 q=32.0 size=   10278kB time=00:00:10.16 bitrate=8280.4kbits/s speed=0.0105x    frame=  335 fps=0.3 q=32.0 size=   10278kB time=00:00:10.20 bitrate=8247.2kbits/s speed=0.0105x    frame=  336 fps=0.3 q=32.0 size=   10278kB time=00:00:10.25 bitrate=8213.4kbits/s speed=0.0106x    frame=  337 fps=0.3 q=32.0 size=   10278kB time=00:00:10.29 bitrate=8179.9kbits/s speed=0.0106x    frame=  338 fps=0.3 q=32.0 size=   12697kB time=00:00:10.33 bitrate=10064.9kbits/s speed=0.0106x    frame=  343 fps=0.4 q=32.0 size=   12697kB time=00:00:10.54 bitrate=9865.4kbits/s speed=0.0108x    frame=  344 fps=0.4 q=32.0 size=   12697kB time=00:00:10.58 bitrate=9827.1kbits/s speed=0.0108x    frame=  346 fps=0.4 q=32.0 size=   12697kB time=00:00:10.66 bitrate=9749.8kbits/s speed=0.0109x    frame=  347 fps=0.4 q=32.0 size=   12697kB time=00:00:10.70 bitrate=9712.4kbits/s speed=0.0109x    frame=  348 fps=0.4 q=30.0 size=   12697kB time=00:00:10.75 bitrate=9674.5kbits/s speed=0.0109x    frame=  349 fps=0.4 q=32.0 size=   12697kB time=00:00:10.79 bitrate=9636.8kbits/s speed=0.011x    frame=  350 fps=0.4 q=32.0 size=   12697kB time=00:00:10.83 bitrate=9600.4kbits/s speed=0.011x    frame=  351 fps=0.4 q=32.0 size=   12697kB time=00:00:10.87 bitrate=9563.3kbits/s speed=0.011x    frame=  353 fps=0.4 q=32.0 size=   12697kB time=00:00:10.95 bitrate=9490.9kbits/s speed=0.0111x    frame=  355 fps=0.4 q=32.0 size=   12697kB time=00:00:11.04 bitrate=9418.7kbits/s speed=0.0111x    frame=  357 fps=0.4 q=32.0 size=   12697kB time=00:00:11.12 bitrate=9348.4kbits/s speed=0.0111x    frame=  358 fps=0.4 q=32.0 size=   12697kB time=00:00:11.16 bitrate=9313.3kbits/s speed=0.0111x    frame=  359 fps=0.4 q=32.0 size=   12697kB time=00:00:11.20 bitrate=9279.2kbits/s speed=0.0112x    frame=  360 fps=0.4 q=32.0 size=   12697kB time=00:00:11.25 bitrate=9244.6kbits/s speed=0.0112x    frame=  361 fps=0.4 q=32.0 size=   12697kB time=00:00:11.29 bitrate=9210.2kbits/s speed=0.0111x    frame=  362 fps=0.4 q=32.0 size=   12697kB time=00:00:11.33 bitrate=9176.9kbits/s speed=0.0112x    frame=  363 fps=0.4 q=32.0 size=   12697kB time=00:00:11.37 bitrate=9143.0kbits/s speed=0.0112x    frame=  365 fps=0.4 q=32.0 size=   12697kB time=00:00:11.45 bitrate=9076.8kbits/s speed=0.0112x    frame=  366 fps=0.4 q=32.0 size=   12697kB time=00:00:11.50 bitrate=9043.6kbits/s speed=0.0112x    frame=  367 fps=0.4 q=32.0 size=   12697kB time=00:00:11.54 bitrate=9010.7kbits/s speed=0.0113x    frame=  368 fps=0.4 q=32.0 size=   12697kB time=00:00:11.58 bitrate=8978.8kbits/s speed=0.0113x    frame=  369 fps=0.4 q=32.0 size=   12697kB time=00:00:11.62 bitrate=8946.4kbits/s speed=0.0112x    frame=  370 fps=0.4 q=32.0 size=   12697kB time=00:00:11.66 bitrate=8914.2kbits/s speed=0.0113x    frame=  371 fps=0.4 q=32.0 size=   12697kB time=00:00:11.70 bitrate=8883.0kbits/s speed=0.0113x    frame=  372 fps=0.4 q=32.0 size=   12697kB time=00:00:11.75 bitrate=8851.2kbits/s speed=0.0113x    frame=  373 fps=0.4 q=32.0 size=   12697kB time=00:00:11.79 bitrate=8819.7kbits/s speed=0.0113x    frame=  374 fps=0.4 q=31.0 size=   12697kB time=00:00:11.83 bitrate=8789.1kbits/s speed=0.0113x    frame=  375 fps=0.4 q=32.0 size=   12697kB time=00:00:11.87 bitrate=8758.0kbits/s speed=0.0114x    frame=  376 fps=0.4 q=32.0 size=   12697kB time=00:00:11.91 bitrate=8727.2kbits/s speed=0.0113x    frame=  377 fps=0.4 q=32.0 size=   12697kB time=00:00:11.95 bitrate=8697.3kbits/s speed=0.0113x    frame=  378 fps=0.4 q=31.0 size=   12697kB time=00:00:12.00 bitrate=8666.8kbits/s speed=0.0114x    frame=  379 fps=0.4 q=31.0 size=   12697kB time=00:00:12.04 bitrate=8636.6kbits/s speed=0.0114x    frame=  380 fps=0.4 q=31.0 size=   12697kB time=00:00:12.08 bitrate=8607.3kbits/s speed=0.0114x    frame=  381 fps=0.4 q=31.0 size=   12697kB time=00:00:12.12 bitrate=8577.5kbits/s speed=0.0114x    frame=  382 fps=0.4 q=31.0 size=   12697kB time=00:00:12.16 bitrate=8547.9kbits/s speed=0.0114x    frame=  385 fps=0.4 q=31.0 size=   12697kB time=00:00:12.29 bitrate=8461.0kbits/s speed=0.0114x    frame=  386 fps=0.4 q=31.0 size=   12697kB time=00:00:12.33 bitrate=8432.8kbits/s speed=0.0115x    frame=  387 fps=0.4 q=31.0 size=   12697kB time=00:00:12.37 bitrate=8404.2kbits/s speed=0.0115x    frame=  388 fps=0.4 q=31.0 size=   12697kB time=00:00:12.41 bitrate=8375.8kbits/s speed=0.0115x    frame=  389 fps=0.4 q=31.0 size=   12697kB time=00:00:12.45 bitrate=8348.2kbits/s speed=0.0115x    frame=  390 fps=0.4 q=31.0 size=   12697kB time=00:00:12.50 bitrate=8320.2kbits/s speed=0.0115x    frame=  394 fps=0.4 q=31.0 size=   12697kB time=00:00:12.66 bitrate=8210.5kbits/s speed=0.0116x    frame=  395 fps=0.4 q=31.0 size=   12697kB time=00:00:12.70 bitrate=8184.0kbits/s speed=0.0116x    frame=  398 fps=0.4 q=31.0 size=   12697kB time=00:00:12.83 bitrate=8104.3kbits/s speed=0.0117x    frame=  400 fps=0.4 q=30.0 size=   12697kB time=00:00:12.91 bitrate=8051.6kbits/s speed=0.0116x    frame=  401 fps=0.4 q=31.0 size=   12697kB time=00:00:12.95 bitrate=8026.1kbits/s speed=0.0117x    frame=  403 fps=0.4 q=31.0 size=   12697kB time=00:00:13.04 bitrate=7974.4kbits/s speed=0.0117x    frame=  406 fps=0.4 q=30.0 size=   12697kB time=00:00:13.16 bitrate=7898.7kbits/s speed=0.0117x    frame=  407 fps=0.4 q=30.0 size=   12697kB time=00:00:13.20 bitrate=7874.2kbits/s speed=0.0117x    frame=  409 fps=0.4 q=30.0 size=   12697kB time=00:00:13.29 bitrate=7824.5kbits/s speed=0.0118x    frame=  411 fps=0.4 q=30.0 size=   12697kB time=00:00:13.37 bitrate=7775.9kbits/s speed=0.0119x    frame=  412 fps=0.4 q=30.0 size=   12697kB time=00:00:13.41 bitrate=7751.6kbits/s speed=0.0118x    frame=  413 fps=0.4 q=30.0 size=   12697kB time=00:00:13.45 bitrate=7728.0kbits/s speed=0.0119x    frame=  416 fps=0.4 q=30.0 size=   12697kB time=00:00:13.58 bitrate=7656.8kbits/s speed=0.0119x    frame=  417 fps=0.4 q=30.0 size=   12697kB time=00:00:13.62 bitrate=7633.2kbits/s speed=0.0119x    frame=  419 fps=0.4 q=30.0 size=   12697kB time=00:00:13.70 bitrate=7587.0kbits/s speed=0.012x    frame=  421 fps=0.4 q=30.0 size=   12697kB time=00:00:13.79 bitrate=7540.8kbits/s speed=0.012x    frame=  422 fps=0.4 q=30.0 size=   12697kB time=00:00:13.83 bitrate=7518.5kbits/s speed=0.012x    frame=  423 fps=0.4 q=30.0 size=   12697kB time=00:00:13.87 bitrate=7495.7kbits/s speed=0.012x    frame=  424 fps=0.4 q=30.0 size=   12697kB time=00:00:13.91 bitrate=7473.1kbits/s speed=0.0121x    frame=  426 fps=0.4 q=29.0 size=   12697kB time=00:00:14.00 bitrate=7428.8kbits/s speed=0.012x    frame=  427 fps=0.4 q=29.0 size=   12697kB time=00:00:14.04 bitrate=7406.6kbits/s speed=0.0121x    frame=  429 fps=0.4 q=30.0 size=   12697kB time=00:00:14.12 bitrate=7363.1kbits/s speed=0.0121x    frame=  432 fps=0.4 q=29.0 size=   12697kB time=00:00:14.25 bitrate=7298.5kbits/s speed=0.0121x    frame=  434 fps=0.4 q=29.0 size=   12697kB time=00:00:14.33 bitrate=7256.2kbits/s speed=0.0122x    frame=  438 fps=0.4 q=29.0 size=   12697kB time=00:00:14.50 bitrate=7172.6kbits/s speed=0.0122x    frame=  439 fps=0.4 q=29.0 size=   12697kB time=00:00:14.54 bitrate=7151.9kbits/s speed=0.0122x    frame=  442 fps=0.4 q=29.0 size=   12697kB time=00:00:14.66 bitrate=7091.0kbits/s speed=0.0123x    frame=  444 fps=0.4 q=29.0 size=   12697kB time=00:00:14.75 bitrate=7051.1kbits/s speed=0.0123x    frame=  445 fps=0.4 q=29.0 size=   12697kB time=00:00:14.79 bitrate=7031.1kbits/s speed=0.0123x    frame=  446 fps=0.4 q=29.0 size=   12697kB time=00:00:14.83 bitrate=7011.6kbits/s speed=0.0123x    frame=  448 fps=0.4 q=29.0 size=   12697kB time=00:00:14.91 bitrate=6972.1kbits/s speed=0.0123x    frame=  449 fps=0.4 q=28.0 size=   12697kB time=00:00:14.95 bitrate=6953.0kbits/s speed=0.0123x    frame=  450 fps=0.4 q=28.0 size=   12697kB time=00:00:15.00 bitrate=6933.6kbits/s speed=0.0124x    frame=  452 fps=0.4 q=28.0 size=   12697kB time=00:00:15.08 bitrate=6895.4kbits/s speed=0.0124x    frame=  453 fps=0.4 q=28.0 size=   12697kB time=00:00:15.12 bitrate=6876.3kbits/s speed=0.0124x    frame=  454 fps=0.4 q=28.0 size=   12697kB time=00:00:15.16 bitrate=6857.2kbits/s speed=0.0124x    frame=  455 fps=0.4 q=28.0 size=   12697kB time=00:00:15.20 bitrate=6838.7kbits/s speed=0.0123x    frame=  456 fps=0.4 q=28.0 size=   12697kB time=00:00:15.25 bitrate=6819.9kbits/s speed=0.0124x    frame=  457 fps=0.4 q=28.0 size=   12697kB time=00:00:15.29 bitrate=6801.2kbits/s speed=0.0124x    frame=  458 fps=0.4 q=28.0 size=   17099kB time=00:00:15.33 bitrate=9134.9kbits/s speed=0.0124x    frame=  459 fps=0.4 q=28.0 size=   17099kB time=00:00:15.37 bitrate=9110.0kbits/s speed=0.0124x    frame=  460 fps=0.4 q=28.0 size=   17099kB time=00:00:15.41 bitrate=9085.1kbits/s speed=0.0124x    frame=  461 fps=0.4 q=28.0 size=   17099kB time=00:00:15.45 bitrate=9061.0kbits/s speed=0.0124x    frame=  463 fps=0.4 q=28.0 size=   17099kB time=00:00:15.54 bitrate=9012.1kbits/s speed=0.0124x    frame=  464 fps=0.4 q=28.0 size=   17099kB time=00:00:15.58 bitrate=8988.4kbits/s speed=0.0124x    frame=  465 fps=0.4 q=28.0 size=   17099kB time=00:00:15.62 bitrate=8964.2kbits/s speed=0.0124x    frame=  467 fps=0.4 q=28.0 size=   17099kB time=00:00:15.70 bitrate=8916.8kbits/s speed=0.0124x    frame=  468 fps=0.4 q=28.0 size=   17099kB time=00:00:15.75 bitrate=8893.1kbits/s speed=0.0125x    frame=  469 fps=0.4 q=28.0 size=   17099kB time=00:00:15.79 bitrate=8869.4kbits/s speed=0.0125x    frame=  470 fps=0.4 q=28.0 size=   17099kB time=00:00:15.83 bitrate=8846.5kbits/s speed=0.0124x    frame=  471 fps=0.4 q=28.0 size=   17099kB time=00:00:15.87 bitrate=8823.0kbits/s speed=0.0124x    frame=  472 fps=0.4 q=28.0 size=   17099kB time=00:00:15.91 bitrate=8799.8kbits/s speed=0.0125x    frame=  476 fps=0.4 q=28.0 size=   17099kB time=00:00:16.08 bitrate=8708.9kbits/s speed=0.0124x    frame=  477 fps=0.4 q=28.0 size=   17099kB time=00:00:16.12 bitrate=8686.3kbits/s speed=0.0125x    frame=  478 fps=0.4 q=28.0 size=   17099kB time=00:00:16.16 bitrate=8663.7kbits/s speed=0.0125x    frame=  479 fps=0.4 q=28.0 size=   17099kB time=00:00:16.20 bitrate=8641.8kbits/s speed=0.0125x    frame=  480 fps=0.4 q=28.0 size=   17099kB time=00:00:16.25 bitrate=8619.5kbits/s speed=0.0125x    frame=  481 fps=0.4 q=28.0 size=   17099kB time=00:00:16.29 bitrate=8597.2kbits/s speed=0.0125x    frame=  482 fps=0.4 q=28.0 size=   17099kB time=00:00:16.33 bitrate=8575.7kbits/s speed=0.0125x    frame=  483 fps=0.4 q=28.0 size=   17099kB time=00:00:16.37 bitrate=8553.7kbits/s speed=0.0125x    frame=  484 fps=0.4 q=28.0 size=   17099kB time=00:00:16.41 bitrate=8531.8kbits/s speed=0.0125x    frame=  485 fps=0.4 q=28.0 size=   17099kB time=00:00:16.45 bitrate=8510.5kbits/s speed=0.0125x    frame=  487 fps=0.4 q=28.0 size=   17099kB time=00:00:16.54 bitrate=8467.3kbits/s speed=0.0125x    frame=  488 fps=0.4 q=28.0 size=   17099kB time=00:00:16.58 bitrate=8446.4kbits/s speed=0.0126x    frame=  489 fps=0.4 q=28.0 size=   17099kB time=00:00:16.62 bitrate=8425.0kbits/s speed=0.0125x    frame=  490 fps=0.4 q=28.0 size=   17099kB time=00:00:16.66 bitrate=8403.8kbits/s speed=0.0124x    frame=  491 fps=0.4 q=28.0 size=   17099kB time=00:00:16.70 bitrate=8383.2kbits/s speed=0.0125x    frame=  492 fps=0.4 q=28.0 size=   17099kB time=00:00:16.75 bitrate=8362.2kbits/s speed=0.0125x    frame=  493 fps=0.4 q=28.0 size=   17099kB time=00:00:16.79 bitrate=8341.3kbits/s speed=0.0125x    frame=  494 fps=0.4 q=28.0 size=   17099kB time=00:00:16.83 bitrate=8320.9kbits/s speed=0.0125x    frame=  495 fps=0.4 q=29.0 size=   17099kB time=00:00:16.87 bitrate=8300.2kbits/s speed=0.0125x    frame=  496 fps=0.4 q=29.0 size=   17099kB time=00:00:16.91 bitrate=8279.6kbits/s speed=0.0125x    frame=  497 fps=0.4 q=28.0 size=   17099kB time=00:00:16.95 bitrate=8259.6kbits/s speed=0.0125x    frame=  498 fps=0.4 q=29.0 size=   17099kB time=00:00:17.00 bitrate=8239.2kbits/s speed=0.0125x    frame=  499 fps=0.4 q=29.0 size=   17099kB time=00:00:17.04 bitrate=8218.9kbits/s speed=0.0125x    frame=  500 fps=0.4 q=28.0 size=   17099kB time=00:00:17.08 bitrate=8199.2kbits/s speed=0.0125x    frame=  500 fps=0.3 q=-1.0 Lsize=   24308kB time=00:00:20.70 bitrate=9615.8kbits/s speed=0.0132x    
video:24304kB audio:0kB subtitle:0kB other streams:0kB global headers:0kB muxing overhead: 0.019512%
bench: utime=5952.380s
bench: maxrss=4198736kB
[libx264 @ 0x37a91c0] frame I:3     Avg QP:22.84  size:256807
[libx264 @ 0x37a91c0] frame P:267   Avg QP:30.85  size: 64087
[libx264 @ 0x37a91c0] frame B:230   Avg QP:30.44  size: 30455
[libx264 @ 0x37a91c0] consecutive B-frames: 34.8% 13.6% 12.0% 16.0% 14.0%  9.6%  0.0%  0.0%  0.0%  0.0%  0.0%  0.0%  0.0%  0.0%  0.0%  0.0%  0.0%
[libx264 @ 0x37a91c0] mb I  I16..4: 12.5% 74.7% 12.8%
[libx264 @ 0x37a91c0] mb P  I16..4: 16.3% 13.6%  1.8%  P16..4: 30.4% 17.8%  2.6%  0.1%  0.0%    skip:17.3%
[libx264 @ 0x37a91c0] mb B  I16..4:  1.2%  2.2%  0.1%  B16..8: 29.4%  7.4%  0.8%  direct: 1.2%  skip:57.7%  L0:42.1% L1:54.5% BI: 3.4%
[libx264 @ 0x37a91c0] final ratefactor: 25.93
[libx264 @ 0x37a91c0] 8x8 transform intra:45.5% inter:86.7%
[libx264 @ 0x37a91c0] direct mvs  spatial:98.7% temporal:1.3%
[libx264 @ 0x37a91c0] coded y,uvDC,uvAC intra: 17.6% 20.6% 1.8% inter: 5.5% 5.2% 0.1%
[libx264 @ 0x37a91c0] i16 v,h,dc,p:  7% 15%  3% 75%
[libx264 @ 0x37a91c0] i8 v,h,dc,ddl,ddr,vr,hd,vl,hu: 11%  8% 20%  7% 10%  9% 12%  9% 15%
[libx264 @ 0x37a91c0] i4 v,h,dc,ddl,ddr,vr,hd,vl,hu: 16% 10% 52%  3%  5%  4%  4%  2%  4%
[libx264 @ 0x37a91c0] i8c dc,h,v,p: 25% 40% 13% 22%
[libx264 @ 0x37a91c0] Weighted P-Frames: Y:3.0% UV:2.6%
[libx264 @ 0x37a91c0] ref P L0: 60.2% 19.0%  9.7%  3.1%  1.9%  1.4%  1.1%  0.7%  0.6%  0.5%  0.4%  0.4%  0.3%  0.3%  0.3%  0.2%
[libx264 @ 0x37a91c0] ref B L0: 90.2%  4.9%  1.9%  0.8%  0.6%  0.4%  0.3%  0.2%  0.2%  0.1%  0.1%  0.1%  0.1%  0.1%  0.0%
[libx264 @ 0x37a91c0] ref B L1: 98.6%  1.4%
[libx264 @ 0x37a91c0] kb/s:9556.33
